PathFileType  4	(X/Y/Z) C:\Users\antoi\Documents\MyRepositories\mobilecap\ResultsAnalysis
DataRate	CameraRate	NumFrames	NumMarkers	Units	OrigDataRate	OrigDataStartFrame	OrigNumFrames
100.0	100.0	4	51	mm	100.0	190	253
Frame#	Time	r_knee			r_shank_antsup			r_ankle			r_calc			r_5meta			r_toe			L_knee			L_shank_antsup			L_ankle			L_calc			L_5meta			L_toe			r_sh2			r_sh3			r_sh4			L_sh2			L_sh3			r_thigh1			r_thigh2			r_thigh3			r_thigh4			r_thigh5			L_thigh1			L_thigh2			L_thigh3			L_thigh4			r.ASIS			r.PSIS			L.ASIS			L.PSIS			C7			R_Shoulder			L_Shoulder			R_Sternum			L_Sternum			R_humerus			R_elbow_med			R_elbow_lat			R_forearm			R_wrist_radius			R_wrist_ulna			L_humerus			L_elbow_med			L_elbow_lat			L_forearm			L_wrist_radius			L_wrist_ulna			R_HJC			L_HJC			R_HJC_reg			L_HJC_reg			
		X1	Y1	Z1	X2	Y2	Z2	X3	Y3	Z3	X4	Y4	Z4	X5	Y5	Z5	X6	Y6	Z6	X7	Y7	Z7	X8	Y8	Z8	X9	Y9	Z9	X10	Y10	Z10	X11	Y11	Z11	X12	Y12	Z12	X13	Y13	Z13	X14	Y14	Z14	X15	Y15	Z15	X16	Y16	Z16	X17	Y17	Z17	X18	Y18	Z18	X19	Y19	Z19	X20	Y20	Z20	X21	Y21	Z21	X22	Y22	Z22	X23	Y23	Z23	X24	Y24	Z24	X25	Y25	Z25	X26	Y26	Z26	X27	Y27	Z27	X28	Y28	Z28	X29	Y29	Z29	X30	Y30	Z30	X31	Y31	Z31	X32	Y32	Z32	X33	Y33	Z33	X34	Y34	Z34	X35	Y35	Z35	X36	Y36	Z36	X37	Y37	Z37	X38	Y38	Z38	X39	Y39	Z39	X40	Y40	Z40	X41	Y41	Z41	X42	Y42	Z42	X43	Y43	Z43	X44	Y44	Z44	X45	Y45	Z45	X46	Y46	Z46	X47	Y47	Z47	X48	Y48	Z48	X49	Y49	Z49	X50	Y50	Z50	X51	Y51	Z51	

190	1.89000000	-85.06885	465.66961	-418.10233	-93.49553	397.40635	-392.75031	-227.23095	128.50643	-440.61615	-302.22965	116.09042	-482.66698	-151.17667	50.19455	-406.61701	-99.05834	55.87980	-458.47890	-131.32442	473.62174	-813.37304	-115.46499	398.79252	-824.81718	-257.67936	128.87266	-777.12089	-335.41251	124.22787	-726.36189	-194.28395	49.46804	-803.58133	-136.57897	55.43168	-752.87897	-137.01160	292.67627	-395.69816	-158.03520	424.58629	-418.02074	-210.07650	321.50881	-423.43807	-197.16311	437.18873	-827.73613	-236.54292	321.37283	-821.04032	-164.57049	766.61289	-448.80861	-107.36292	671.30146	-423.78356	-145.83277	629.88578	-387.27946	-256.24531	725.38188	-397.29406	-201.54939	621.67960	-396.29761	-192.63051	757.92340	-788.03023	-132.95473	636.28749	-814.53621	-299.33561	710.41092	-783.45084	-230.53734	587.84427	-805.22280	-197.23189	874.39614	-468.32696	-378.13365	909.30639	-532.77845	-206.96916	885.78138	-725.08122	-386.74350	910.21324	-636.32183	-199.08512	1356.81231	-602.98898	-136.72891	1339.18728	-477.52239	-124.92722	1354.64442	-719.65154	-75.24106	1266.33807	-577.47419	-73.66233	1267.43560	-622.86507	-102.84423	1305.61359	-272.16756	-107.98552	1205.05718	-183.67015	-89.29277	1288.98290	-187.10881	-46.42550	1273.47223	-299.39021	-15.76914	1239.42520	-398.83916	23.20546	1228.93681	-379.47003	-55.69903	1348.10265	-795.09892	38.99740	1257.85392	-982.60646	41.20570	1333.29842	-982.54954	47.45442	1332.58945	-864.08020	31.78040	1296.25636	-753.36537	69.25391	1288.87247	-752.82995	-267.67218	805.35600	-495.76769	-273.82081	816.57581	-695.64948	-264.03925	803.20396	-499.72901	-278.10873	804.68416	-668.88582	
191	1.90000000	-98.43498	475.88448	-418.00126	-105.97065	407.77123	-391.65456	-225.27265	131.37121	-438.40287	-299.27806	121.53197	-480.76284	-149.88433	50.49757	-405.85405	-97.83598	55.74686	-457.67219	-146.79288	485.28056	-808.33547	-129.81866	411.98222	-820.57360	-255.75644	132.26764	-778.08349	-332.18071	130.08633	-727.56857	-193.03760	50.79290	-804.04162	-135.38299	55.48548	-753.16452	-144.42550	301.06738	-394.26913	-171.43119	431.42878	-417.90649	-218.22871	325.93933	-422.90148	-213.42474	445.86184	-822.44550	-246.33601	327.93879	-817.79308	-158.06646	783.48869	-448.36175	-107.73972	684.42421	-423.11380	-149.89767	645.49616	-387.41661	-253.64807	747.76967	-399.50103	-205.77070	640.80301	-397.57354	-187.75672	774.25909	-788.02319	-137.70192	647.81130	-812.55517	-297.56200	734.51530	-782.19263	-238.60260	606.95794	-802.11037	-187.74873	897.82344	-469.81686	-369.13864	930.62689	-532.94087	-199.19196	911.88036	-726.95149	-378.25167	931.60947	-635.94963	-205.84131	1386.52104	-601.05766	-140.64361	1370.14161	-476.93760	-132.22269	1385.91249	-716.93209	-80.59780	1298.22338	-576.66717	-79.33944	1298.66978	-622.58040	-111.01801	1331.69200	-268.82869	-131.22148	1232.88679	-180.53152	-101.61065	1313.20203	-183.25142	-52.45802	1289.43753	-288.80293	-18.34364	1249.50849	-388.36619	17.36139	1235.48421	-364.48072	-61.93436	1378.25456	-793.55196	20.04585	1288.78169	-988.47048	29.01337	1363.58306	-984.63392	38.90222	1357.02316	-866.98903	21.99249	1315.31549	-757.91449	59.64588	1306.77782	-758.29089	-256.73967	827.92975	-497.63245	-264.49124	841.02489	-697.34396	-253.87524	826.86002	-501.05056	-268.86828	828.47679	-670.51389	
192	1.91000000	-114.58330	488.83425	-418.64820	-121.27838	419.88918	-391.30017	-223.01547	135.25467	-435.84872	-295.28357	128.83996	-478.52474	-148.36797	51.17380	-404.92356	-96.28870	55.82602	-456.47018	-164.71188	498.78037	-801.41674	-146.85056	427.69443	-814.85167	-252.84477	137.79816	-779.37993	-326.54254	139.08809	-729.20375	-191.01255	52.77524	-805.00215	-133.59183	55.43604	-753.70022	-153.67430	310.69528	-393.08483	-187.68820	439.45115	-418.64092	-228.06062	330.68196	-422.65253	-232.52003	455.64010	-815.36133	-257.30927	335.71938	-813.98827	-151.56243	801.15535	-449.53837	-109.26344	698.74756	-423.42497	-154.86981	662.73887	-388.72646	-250.81655	772.07854	-402.03444	-210.71881	661.86002	-399.54692	-183.13213	791.45565	-787.57553	-143.84843	660.70620	-809.20107	-295.64481	759.92406	-781.05058	-247.45035	627.93965	-798.29938	-177.68982	923.06762	-471.69845	-359.54661	952.73954	-533.14093	-190.84472	938.69249	-728.73620	-369.09152	954.03383	-636.11472	-212.63161	1416.09954	-598.84080	-144.71242	1400.08163	-476.54011	-139.70767	1416.29594	-714.36721	-86.30861	1330.02444	-575.49321	-85.25428	1329.94957	-622.23358	-119.03452	1355.70812	-265.90068	-153.41532	1259.28588	-179.64250	-113.73289	1334.29413	-179.99521	-58.12358	1302.83021	-277.97573	-19.13226	1257.14972	-376.10957	11.60717	1239.00765	-347.65691	-68.27630	1406.07322	-791.97247	-0.30897	1316.52034	-993.12354	16.30799	1389.77135	-986.82955	30.11516	1378.26153	-871.06179	13.42649	1333.03578	-762.90572	50.82289	1322.90860	-764.52707	-245.03458	851.99055	-499.44945	-254.40081	866.29429	-699.01144	-242.69611	851.29327	-503.01201	-258.40010	853.42162	-672.45096	
193	1.92000000	-133.36926	504.71868	-420.16244	-139.23062	433.99698	-391.95592	-219.14238	140.87426	-432.58237	-288.95654	139.14898	-475.73416	-146.20098	52.29522	-403.50238	-94.23454	55.69656	-455.07276	-185.63196	514.39863	-791.52599	-166.52183	446.50803	-806.51980	-246.17228	146.79564	-781.92876	-316.52700	152.98517	-731.41929	-187.71964	55.33944	-805.82865	-130.50173	54.94912	-754.49863	-164.11907	322.44473	-392.01326	-206.47579	448.44136	-420.59344	-239.13501	336.38649	-422.88507	-254.26658	467.03961	-805.79995	-268.91476	345.67831	-809.38657	-145.42369	819.56600	-451.71540	-111.74986	714.26445	-425.10340	-160.17942	681.60668	-391.11809	-247.48460	797.78916	-404.87348	-215.81968	684.66127	-402.05860	-178.79179	809.67291	-786.84732	-150.85037	675.43428	-804.17265	-293.46379	786.55453	-779.82013	-256.51831	650.94596	-793.73483	-167.40061	949.71891	-474.18434	-349.40880	975.52777	-533.63685	-181.61318	965.60651	-730.40603	-359.24748	977.35090	-636.86893	-219.32179	1445.03204	-596.43371	-148.96250	1428.47049	-475.67190	-147.22445	1445.17123	-711.89285	-92.30341	1361.20787	-573.94317	-91.25105	1361.11639	-621.73065	-126.90643	1377.53752	-263.27837	-173.83634	1283.35249	-180.70787	-125.68257	1352.05234	-177.43787	-64.39536	1313.33430	-268.13187	-19.77232	1262.18267	-361.62250	4.69393	1239.83141	-330.37368	-74.95673	1431.46833	-790.72018	-21.70890	1340.91167	-996.70368	3.14022	1411.67291	-989.30220	21.20272	1396.17078	-875.80186	6.16888	1348.98997	-767.74490	42.52087	1336.50813	-771.36529	-232.87783	877.21687	-501.24817	-243.58237	891.95585	-700.71140	-230.72734	876.24971	-505.80239	-246.82174	879.23264	-674.70031	
